<svg xmlns="http://www.w3.org/2000/svg" xmlns:xlink="http://www.w3.org/1999/xlink" viewBox="0 0 430 430" width="430" height="430" preserveAspectRatio="xMidYMid meet">
<style>
  #device-group {
    transform-origin: 215px 215px;
    animation: phoneApproach 3.6s cubic-bezier(.22,.75,.18,1) infinite;
    will-change: transform;
  }

  #screen-reflection {
    animation: screenFlash 3.6s ease-in-out infinite;
  }

  #scan-target {
    transform-origin: 201px 191px;
    animation: targetPulse 3.6s ease-in-out infinite;
  }

  #scan-pulse {
    animation: fieldPulse 3.6s ease-in-out infinite;
  }

  #scan-glow {
    animation: scanSweepGlow 3.6s cubic-bezier(.3,0,.16,1) infinite;
  }

  #scan-line {
    animation: scanSweep 3.6s cubic-bezier(.3,0,.16,1) infinite;
  }

  @keyframes phoneApproach {
    0%   { transform: translate(-22px, 20px) rotate(-13deg) scale(.965); }
    14%  { transform: translate(-18px, 16px) rotate(-11deg) scale(.973); }
    28%  { transform: translate(-8px, 6px) rotate(-5.5deg) scale(.988); }
    40%  { transform: translate(1px, -1px) rotate(.8deg) scale(1); }
    48%  { transform: translate(0px, 0px) rotate(0deg) scale(1); }
    70%  { transform: translate(0px, 0px) rotate(0deg) scale(1); }
    82%  { transform: translate(-1px, 1px) rotate(-.35deg) scale(.998); }
    100% { transform: translate(-22px, 20px) rotate(-13deg) scale(.965); }
  }

  @keyframes screenFlash {
    0%, 24%, 100% { opacity: 0; }
    30% { opacity: .06; }
    42% { opacity: .12; }
    58% { opacity: .08; }
    72% { opacity: 0; }
  }

  @keyframes targetPulse {
    0%, 26%, 100% { opacity: 1; }
    34% { opacity: .82; }
    42% { opacity: 1; }
    50% { opacity: .72; }
    58% { opacity: 1; }
    66% { opacity: .88; }
    74% { opacity: 1; }
  }

  @keyframes fieldPulse {
    0%, 24%, 100% { opacity: 0; }
    30% { opacity: .08; }
    40% { opacity: .18; }
    52% { opacity: .24; }
    64% { opacity: .16; }
    72% { opacity: 0; }
  }

  @keyframes scanSweep {
    0%, 26%, 100% { transform: translateY(-50px) scaleX(.82); opacity: 0; }
    30% { transform: translateY(-36px) scaleX(.88); opacity: .1; }
    36% { transform: translateY(-18px) scaleX(.96); opacity: 1; }
    46% { transform: translateY(10px) scaleX(1); opacity: 1; }
    56% { transform: translateY(36px) scaleX(.98); opacity: .98; }
    62% { transform: translateY(52px) scaleX(.95); opacity: .85; }
    68% { transform: translateY(66px) scaleX(.9); opacity: 0; }
  }

  @keyframes scanSweepGlow {
    0%, 26%, 100% { transform: translateY(-52px) scaleX(.72); opacity: 0; }
    32% { opacity: .22; }
    38% { transform: translateY(-18px) scaleX(.92); opacity: .58; }
    48% { transform: translateY(10px) scaleX(1.04); opacity: .82; }
    58% { transform: translateY(38px) scaleX(1.02); opacity: .68; }
    64% { transform: translateY(58px) scaleX(.94); opacity: .34; }
    68% { opacity: 0; }
  }
</style>

<defs>
  <clipPath id="scan-clip">
    <rect x="147" y="145" width="119" height="105" rx="18" ry="18" />
  </clipPath>
  <filter id="soft-blur" x="-50%" y="-50%" width="200%" height="200%">
    <feGaussianBlur stdDeviation="7" />
  </filter>
</defs>
<g id="device-group"><defs><clipPath id="__lottie_element_16"><rect width="430" height="430" x="0" y="0"/></clipPath><clipPath id="__lottie_element_18"><path d="M0,0 L430,0 L430,430 L0,430z"/></clipPath></defs><g clip-path="url(#__lottie_element_16)"><g clip-path="url(#__lottie_element_18)" transform="matrix(1,0,0,1,0,0)" opacity="1" style="display: block;"><g transform="matrix(0.9984756708145142,0.05519380420446396,-0.05519380420446396,0.9984756708145142,-107.88623046875,21.16811180114746)" opacity="1" style="display: block;"><g opacity="1" transform="matrix(1,0,0,1,395.04998779296875,236.6269989013672)"><path class="primary" fill="rgb(244,182,156)" fill-opacity="1" d=" M72.18800354003906,34.48500061035156 C72.18800354003906,34.48500061035156 13.208000183105469,73.94300079345703 -16.28700065612793,93.66699981689453 C-16.28700065612793,93.66699981689453 -49.78245162963867,64.93302917480469 -70.24293518066406,43.52855682373047 C-83.90065002441406,29.19626808166504 -101.3550033569336,-9.788000106811523 -101.3550033569336,-9.788000106811523 C-88.6500015258789,-9.788000106811523 -57.516998291015625,-21.42099952697754 -57.516998291015625,-34.125999450683594 C-57.516998291015625,-34.125999450683594 -13.017000198364258,-20.76799964904785 -13.017000198364258,-20.76799964904785 C-13.017000198364258,-20.76799964904785 -46.07500076293945,-52.31700134277344 -46.07500076293945,-52.31700134277344 C-57.13399887084961,-56.05500030517578 -63.130001068115234,-68.16699981689453 -59.4010009765625,-79.22599792480469 C-56.42100143432617,-88.06400299072266 -48.095001220703125,-93.66699981689453 -39.229000091552734,-93.66699981689453 C-40.01499938964844,-93.64900207519531 -34.7140007019043,-93.31099700927734 -32.48400115966797,-92.552001953125 C-32.48400115966797,-92.552001953125 -13.017000198364258,-64.11000061035156 -13.017000198364258,-64.11000061035156 C-13.017000198364258,-64.11000061035156 19.47599983215332,-52.78499984741211 19.47599983215332,-52.78499984741211 C19.47599983215332,-52.78499984741211 19.511999130249023,-52.7760009765625 19.520999908447266,-52.757999420166016 C24.51099967956543,-50.1349983215332 28.459999084472656,-45.55500030517578 30.09600067138672,-39.733001708984375 C30.09600067138672,-39.733001708984375 61.393001556396484,0.9419999718666077 61.393001556396484,0.9419999718666077 C61.393001556396484,0.9419999718666077 72.18800354003906,34.48500061035156 72.18800354003906,34.48500061035156z"/></g><g opacity="0.5" transform="matrix(1,0,0,1,362.0010070800781,306.1130065917969)" style="mix-blend-mode: multiply;"><g opacity="1" transform="matrix(1,0,0,1,0,0)"><path class="primary" fill="rgb(244,182,156)" fill-opacity="1" d=" M35.52399826049805,11.303000450134277 C19.920000076293945,-3.743000030517578 4.315999984741211,-18.790000915527344 -11.288000106811523,-33.83599853515625 C-24.691999435424805,-46.76100158691406 -36.5989990234375,-61.44300079345703 -51.499000549316406,-72.61000061035156 C-55.05099868774414,-75.27200317382812 -66.14399719238281,-78.12200164794922 -64.75299835205078,-73.90599822998047 C-58.72999954223633,-55.64699935913086 -48.543800354003906,-38.49421310424805 -35.47202682495117,-24.397933959960938 C-17.204633712768555,-4.708596229553223 4.389999866485596,14.147000312805176 16.76099967956543,24.180999755859375"/></g></g></g><g transform="matrix(0.9984756708145142,0.05519380420446396,-0.05519380420446396,0.9984756708145142,-20.1531982421875,-53.102783203125)" opacity="1" style="display: block;"><path class="quaternary" fill="rgb(232,139,47)" fill-opacity="1" d=" M314.21,335.1 C314.21,347.8 303.83,358.18 291.13,358.18 C291.13,358.18 185.1,358.18 185.1,358.18 C172.4,358.18 162.01,347.8 162.01,335.1 C162.01,335.1 162.01,112.97 162.01,112.97 C162.01,100.27 172.4,89.88 185.1,89.88 C185.1,89.88 291.13,89.88 291.13,89.88 C303.83,89.88 314.21,100.27 314.21,112.97 C314.21,112.97 314.21,335.1 314.21,335.1z M257.44,116.99 C257.44,116.99 218.78,116.99 218.78,116.99"/><g opacity="1" transform="matrix(1,0,0,1,238.11300659179688,224.03199768066406)"><path stroke-linecap="round" stroke-linejoin="round" fill-opacity="0" class="tertiary" stroke="rgb(58,51,71)" stroke-opacity="1" stroke-width="7" d=" M76.0999984741211,111.06500244140625 C76.0999984741211,123.7699966430664 65.71700286865234,134.15199279785156 53.012001037597656,134.15199279785156 C53.012001037597656,134.15199279785156 -53.012001037597656,134.15199279785156 -53.012001037597656,134.15199279785156 C-65.71700286865234,134.15199279785156 -76.0999984741211,123.7699966430664 -76.0999984741211,111.06500244140625 C-76.0999984741211,111.06500244140625 -76.0999984741211,-111.06500244140625 -76.0999984741211,-111.06500244140625 C-76.0999984741211,-123.76000213623047 -65.71700286865234,-134.15199279785156 -53.012001037597656,-134.15199279785156 C-53.012001037597656,-134.15199279785156 53.012001037597656,-134.15199279785156 53.012001037597656,-134.15199279785156 C65.71700286865234,-134.15199279785156 76.0999984741211,-123.76000213623047 76.0999984741211,-111.06500244140625 C76.0999984741211,-111.06500244140625 76.0999984741211,111.06500244140625 76.0999984741211,111.06500244140625z"/></g><g opacity="1" transform="matrix(1,0,0,1,238.11300659179688,116.98899841308594)"><path stroke-linecap="round" stroke-linejoin="round" fill-opacity="0" class="tertiary" stroke="rgb(58,51,71)" stroke-opacity="1" stroke-width="7" d=" M19.32900047302246,0 C19.32900047302246,0 -19.32900047302246,0 -19.32900047302246,0"/></g></g><g transform="matrix(0.9984756708145142,0.05519380420446396,-0.05519380420446396,0.9984756708145142,-20.1531982421875,-53.102783203125)" opacity="1" style="display: block;"><g opacity="1" transform="matrix(1,0,0,1,241.82000732421875,224.64376831054688)"><path stroke-linecap="round" stroke-linejoin="round" fill-opacity="0" class="secondary" stroke="rgb(0,0,0)" stroke-opacity="1" stroke-width="7" d=" M-46.895999908447266,0 C-46.895999908447266,0 36.895999908447266,0 36.895999908447266,0"/></g><g id="scan-target" opacity="1" transform="matrix(1,0,0,1,0,0)"><g opacity="1" transform="matrix(1,0,0,1,201.24899291992188,191.39999389648438)"><path stroke-linecap="round" stroke-linejoin="round" fill-opacity="0" class="secondary" stroke="rgb(0,0,0)" stroke-opacity="1" stroke-width="7" d=" M85.19100189208984,57.70800018310547 C85.19100189208984,57.70800018310547 85.19100189208984,73.98200225830078 85.19100189208984,73.98200225830078 C85.19100189208984,80.1729965209961 80.16799926757812,85.18599700927734 73.98699951171875,85.18599700927734 C73.98699951171875,85.18599700927734 57.70399856567383,85.18599700927734 57.70399856567383,85.18599700927734 M-13.73900032043457,57.70800018310547 C-13.73900032043457,57.70800018310547 -13.73900032043457,73.98200225830078 -13.73900032043457,73.98200225830078 C-13.73900032043457,80.1729965209961 -8.72599983215332,85.18599700927734 -2.5350000858306885,85.18599700927734 C-2.5350000858306885,85.18599700927734 13.73900032043457,85.18599700927734 13.73900032043457,85.18599700927734 M57.70399856567383,-13.744000434875488 C57.70399856567383,-13.744000434875488 73.98699951171875,-13.744000434875488 73.98699951171875,-13.744000434875488 C80.16799926757812,-13.744000434875488 85.19100189208984,-8.720000267028809 85.19100189208984,-2.5390000343322754 C85.19100189208984,-2.5390000343322754 85.19100189208984,13.744000434875488 85.19100189208984,13.744000434875488 M-13.73900032043457,13.744000434875488 C-13.73900032043457,13.744000434875488 -13.73900032043457,-2.5390000343322754 -13.73900032043457,-2.5390000343322754 C-13.73900032043457,-8.720000267028809 -8.72599983215332,-13.744000434875488 -2.5350000858306885,-13.744000434875488 C-2.5350000858306885,-13.744000434875488 13.73900032043457,-13.744000434875488 13.73900032043457,-13.744000434875488"/></g></g></g><g transform="matrix(0.9984756708145142,0.05519380420446396,-0.05519380420446396,0.9984756708145142,-107.88623046875,21.16811180114746)" opacity="1" style="display: block;"><g opacity="1" transform="matrix(1,0,0,1,395.04998779296875,236.6269989013672)"><path class="primary" fill="rgb(244,182,156)" fill-opacity="1" d=" M72.18800354003906,34.48500061035156 C72.18800354003906,34.48500061035156 13.208000183105469,73.94300079345703 -16.28700065612793,93.66699981689453 C-16.28700065612793,93.66699981689453 9.312000274658203,91.96199798583984 9.312000274658203,91.96199798583984 C9.312000274658203,91.96199798583984 34.14500045776367,72.46199798583984 34.14500045776367,72.46199798583984 C46.849998474121094,72.46199798583984 11.967949867248535,53.65353012084961 11.58574104309082,40.95802307128906 C11.58574104309082,40.95802307128906 3.7214274406433105,-34.16444778442383 3.7214274406433105,-34.16444778442383 C3.7214274406433105,-34.16444778442383 -45.797203063964844,-55.963802337646484 -45.797203063964844,-55.963802337646484 C-56.08229446411133,-60.58265686035156 -60.6386833190918,-73.02307891845703 -55.85101318359375,-83.63088989257812 C-52.024967193603516,-92.10820007324219 -43.318023681640625,-96.96196746826172 -34.75196838378906,-96.21843719482422 C-35.51329040527344,-96.26624298095703 -30.427440643310547,-95.4878158569336 -28.353740692138672,-94.5516357421875 C-28.353740692138672,-94.5516357421875 4.781993389129639,-79.27005004882812 4.781993389129639,-79.27005004882812 C4.781993389129639,-79.27005004882812 35.70502471923828,-66.9129638671875 35.70502471923828,-66.9129638671875 C35.70502471923828,-66.9129638671875 35.738494873046875,-66.90079498291016 35.74559783935547,-66.88216400146484 C40.286312103271484,-63.8737907409668 45.67555618286133,-57.42451095581055 46.632564544677734,-51.53860092163086 C46.632564544677734,-51.53860092163086 61.393001556396484,0.9419999718666077 61.393001556396484,0.9419999718666077 C61.393001556396484,0.9419999718666077 72.18800354003906,34.48500061035156 72.18800354003906,34.48500061035156z"/></g><g opacity="1" transform="matrix(1,0,0,1,431.4129943847656,313.5840148925781)"><path class="secondary" fill="rgb(0,0,0)" fill-opacity="1" d=" M35.814998626708984,-42.4640007019043 C35.814998626708984,-42.4640007019043 52.143001556396484,-18.066999435424805 52.143001556396484,-18.066999435424805 C53.064998626708984,-16.690000534057617 52.69599914550781,-14.82800006866455 51.319000244140625,-13.906000137329102 C51.319000244140625,-13.906000137329102 -32.143001556396484,41.957000732421875 -32.143001556396484,41.957000732421875 C-33.52000045776367,42.87900161743164 -35.38199996948242,42.50899887084961 -36.30400085449219,41.13199996948242 C-36.30400085449219,41.13199996948242 -52.6510009765625,16.70800018310547 -52.6510009765625,16.70800018310547"/></g><g opacity="0.5" transform="matrix(1,0,0,1,398.39801025390625,336.6199951171875)" style="mix-blend-mode: multiply;"><path class="secondary" fill="rgb(0,0,0)" fill-opacity="1" d=" M19.635000228881836,5.817999839782715 C18.257999420166016,6.739999771118164 16.395999908447266,6.370999813079834 15.473999977111816,4.99399995803833 C15.473999977111816,4.99399995803833 -0.7210000157356262,-19.202999114990234 -0.7210000157356262,-19.202999114990234 C-0.7210000157356262,-19.202999114990234 -19.635000228881836,-6.552999973297119 -19.635000228881836,-6.552999973297119 C-19.635000228881836,-6.552999973297119 -3.2890000343322754,17.871999740600586 -3.2890000343322754,17.871999740600586 C-2.368000030517578,19.249000549316406 -0.5040000081062317,19.617000579833984 0.8730000257492065,18.695999145507812"/></g><g opacity="0.5" transform="matrix(1,0,0,1,0,0)" style="mix-blend-mode: multiply;"><path class="primary" fill="rgb(244,182,156)" fill-opacity="1" d=" M349.8919372558594,142.33905029296875 C343.59521484375,144.6966094970703 338.2560119628906,152.08201599121094 337.5290832519531,159.02976989746094 C336.9752502441406,164.3185272216797 337.810546875,175.13348388671875 348.48193359375,180.30804443359375 C361.36737060546875,186.5564422607422 388.1399841308594,197.38011169433594 400.1868896484375,202.91537475585938 C401.0993957519531,192.22674560546875 393.11376953125,180.18414306640625 385.14410400390625,176.7494659423828 C377.1744384765625,173.3147735595703 372.9941101074219,171.07034301757812 363.0997314453125,166.7205047607422 C347.85272216796875,160.01760864257812 349.6951904296875,147.5802001953125 349.8919372558594,142.33905029296875z"/></g></g></g></g></g>
<rect id="screen-reflection" x="151" y="149" width="111" height="97" rx="16" fill="#ffffff" fill-opacity="0.12" />
<g clip-path="url(#scan-clip)"></g>

<style id="v3-override">
  #phoneGroup, .phoneGroup, [id*="phone"], [class*="phone"] {
    animation: phoneMoveV3 1.15s cubic-bezier(0.45, 0.02, 0.55, 0.98) infinite !important;
    transform-origin: 72% 70% !important;
    will-change: transform;
  }

  @keyframes phoneMoveV3 {
    0%   { transform: translate(0px, 0px) rotate(0deg); }
    25%  { transform: translate(-16px, -8px) rotate(-9deg); }
    50%  { transform: translate(-31px, -15px) rotate(-16deg); }
    75%  { transform: translate(-16px, -8px) rotate(-9deg); }
    100% { transform: translate(0px, 0px) rotate(0deg); }
  }
</style>

</svg>