<svg width="1680" height="120" viewBox="0 0 1680 120" fill="none" xmlns="http://www.w3.org/2000/svg">
  <defs>
    <filter id="cardShadow" x="-10%" y="-20%" width="120%" height="160%" filterUnits="objectBoundingBox">
      <feDropShadow dx="0" dy="4" stdDeviation="4" flood-color="#0F172A" flood-opacity="0.08" />
    </filter>
  </defs>
  <g filter="url(#cardShadow)">
    <rect x="12" y="16" width="92" height="56" rx="8" fill="#F5F5F5" />
    <rect x="12.5" y="16.5" width="91" height="55" rx="7.5" stroke="#B8B8B8" />
    <text x="58" y="53" text-anchor="middle" font-family="Arial, sans-serif" font-size="24" font-weight="700" fill="#1A3D8F">VISA</text>
  </g>
  <g filter="url(#cardShadow)">
    <rect x="116" y="16" width="92" height="56" rx="8" fill="#F5F5F5" />
    <rect x="116.5" y="16.5" width="91" height="55" rx="7.5" stroke="#B8B8B8" />
    <circle cx="153" cy="44" r="16" fill="#EA001B" />
    <circle cx="171" cy="44" r="16" fill="#F79E1B" fill-opacity="0.92" />
  </g>
  <g filter="url(#cardShadow)">
    <rect x="220" y="16" width="92" height="56" rx="8" fill="#F5F5F5" />
    <rect x="220.5" y="16.5" width="91" height="55" rx="7.5" stroke="#B8B8B8" />
    <rect x="232" y="27" width="68" height="34" rx="6" fill="#C62828" />
    <text x="266" y="48" text-anchor="middle" font-family="Arial, sans-serif" font-size="16" font-style="italic" font-weight="700" fill="white">Hipercard</text>
  </g>
  <g filter="url(#cardShadow)">
    <rect x="324" y="16" width="92" height="56" rx="8" fill="#F5F5F5" />
    <rect x="324.5" y="16.5" width="91" height="55" rx="7.5" stroke="#B8B8B8" />
    <path d="M342 26.5L377 21L383 55.5L348 61L342 26.5Z" fill="#F58220" />
    <text x="362" y="49" text-anchor="middle" font-family="Arial, sans-serif" font-size="16" font-weight="700" fill="white">Hiper</text>
  </g>
  <g filter="url(#cardShadow)">
    <rect x="428" y="16" width="108" height="56" rx="8" fill="#F5F5F5" />
    <rect x="428.5" y="16.5" width="107" height="55" rx="7.5" stroke="#B8B8B8" />
    <text x="482" y="40" text-anchor="middle" font-family="Arial, sans-serif" font-size="13" font-weight="700" fill="#2480DB">AMERICAN</text>
    <text x="482" y="56" text-anchor="middle" font-family="Arial, sans-serif" font-size="13" font-weight="700" fill="#2480DB">EXPRESS</text>
  </g>
  <g filter="url(#cardShadow)">
    <rect x="548" y="16" width="92" height="56" rx="8" fill="#F5F5F5" />
    <rect x="548.5" y="16.5" width="91" height="55" rx="7.5" stroke="#B8B8B8" />
    <text x="594" y="35" text-anchor="middle" font-family="Georgia, serif" font-size="11" font-weight="700" fill="#365A7A">Diners Club</text>
    <text x="594" y="50" text-anchor="middle" font-family="Georgia, serif" font-size="9" font-weight="700" fill="#365A7A">INTERNATIONAL</text>
  </g>
  <g filter="url(#cardShadow)">
    <rect x="652" y="16" width="92" height="56" rx="8" fill="#F5F5F5" />
    <rect x="652.5" y="16.5" width="91" height="55" rx="7.5" stroke="#B8B8B8" />
    <rect x="666" y="28" width="64" height="30" rx="5" fill="#0F6CBD" />
    <text x="698" y="47" text-anchor="middle" font-family="Arial, sans-serif" font-size="15" font-weight="700" fill="white">CABAL</text>
  </g>
  <g filter="url(#cardShadow)">
    <rect x="756" y="16" width="92" height="56" rx="8" fill="#F5F5F5" />
    <rect x="756.5" y="16.5" width="91" height="55" rx="7.5" stroke="#B8B8B8" />
    <text x="802" y="50" text-anchor="middle" font-family="Arial, sans-serif" font-size="22" font-weight="700" fill="#2F2A2B">Elo</text>
  </g>
  <g filter="url(#cardShadow)">
    <rect x="860" y="16" width="92" height="56" rx="8" fill="#F5F5F5" />
    <rect x="860.5" y="16.5" width="91" height="55" rx="7.5" stroke="#B8B8B8" />
    <text x="906" y="37" text-anchor="middle" font-family="Arial, sans-serif" font-size="17" font-weight="700" fill="#3F3C65">pluxee</text>
    <text x="906" y="49" text-anchor="middle" font-family="Arial, sans-serif" font-size="6" font-weight="700" fill="#7B7B98">beneficios e incentivos</text>
  </g>
  <g filter="url(#cardShadow)">
    <rect x="964" y="16" width="92" height="56" rx="8" fill="#F5F5F5" />
    <rect x="964.5" y="16.5" width="91" height="55" rx="7.5" stroke="#B8B8B8" />
    <rect x="976" y="25" width="68" height="38" rx="19" fill="#0D8B4E" />
    <text x="1010" y="49" text-anchor="middle" font-family="Arial, sans-serif" font-size="18" font-weight="700" fill="white">alelo</text>
  </g>
  <g filter="url(#cardShadow)">
    <rect x="1068" y="16" width="92" height="56" rx="8" fill="#F5F5F5" />
    <rect x="1068.5" y="16.5" width="91" height="55" rx="7.5" stroke="#B8B8B8" />
    <path d="M1101 34L1107 28L1113 34L1107 40L1101 34Z" fill="#5AC4B0" />
    <path d="M1116 34L1122 28L1128 34L1122 40L1116 34Z" fill="#5AC4B0" />
    <path d="M1101 49L1107 43L1113 49L1107 55L1101 49Z" fill="#5AC4B0" />
    <path d="M1116 49L1122 43L1128 49L1122 55L1116 49Z" fill="#5AC4B0" />
    <text x="1137" y="48" text-anchor="middle" font-family="Arial, sans-serif" font-size="16" font-weight="400" fill="#7E8D8A">pix</text>
  </g>
  <g filter="url(#cardShadow)">
    <rect x="1172" y="16" width="92" height="56" rx="8" fill="#F5F5F5" />
    <rect x="1172.5" y="16.5" width="91" height="55" rx="7.5" stroke="#B8B8B8" />
    <rect x="1200" y="29" width="36" height="30" rx="5" stroke="#2B2B2B" stroke-width="3" />
    <path d="M1207 36H1212M1224 36H1229M1207 44H1212M1224 44H1229M1207 52H1212M1224 52H1229" stroke="#2B2B2B" stroke-width="3" stroke-linecap="round" />
  </g>
  <g filter="url(#cardShadow)">
    <rect x="1276" y="16" width="92" height="56" rx="8" fill="#F5F5F5" />
    <rect x="1276.5" y="16.5" width="91" height="55" rx="7.5" stroke="#B8B8B8" />
    <rect x="1294" y="28" width="56" height="32" rx="4" stroke="#111111" stroke-width="2" />
    <path d="M1307 43C1307 37 1311 33 1317 33C1322 33 1326 36 1327 41H1321C1320 39 1319 38 1317 38C1314 38 1312 40 1312 43C1312 46 1314 49 1317 49C1319 49 1320 47 1321 45H1327C1326 50 1322 54 1317 54C1311 54 1307 49 1307 43Z" fill="#111111" />
    <path d="M1317 43H1332" stroke="#111111" stroke-width="2" stroke-linecap="round" />
  </g>
  <g filter="url(#cardShadow)">
    <rect x="1380" y="16" width="92" height="56" rx="8" fill="#F5F5F5" />
    <rect x="1380.5" y="16.5" width="91" height="55" rx="7.5" stroke="#B8B8B8" />
    <circle cx="1404" cy="44" r="12" fill="#F5F5F5" stroke="#C7C7C7" />
    <path d="M1400 44C1400 40 1403 37 1407 37C1410 37 1412 38 1414 41L1410 44C1409 42 1408 42 1407 42C1405 42 1404 43 1404 45C1404 47 1405 48 1407 48C1408 48 1409 47 1410 46L1414 49C1412 51 1410 52 1407 52C1403 52 1400 49 1400 44Z" fill="#4285F4" />
    <path d="M1407 44H1415" stroke="#34A853" stroke-width="2" stroke-linecap="round" />
    <path d="M1436 43C1436 38 1440 34 1445 34C1450 34 1454 38 1454 43C1454 48 1450 52 1445 52C1440 52 1436 48 1436 43ZM1445 39C1443 39 1441 41 1441 43C1441 45 1443 47 1445 47C1447 47 1449 45 1449 43C1449 41 1447 39 1445 39Z" fill="#EA4335" />
  </g>
  <g filter="url(#cardShadow)">
    <rect x="1484" y="16" width="116" height="56" rx="8" fill="#F5F5F5" />
    <rect x="1484.5" y="16.5" width="115" height="55" rx="7.5" stroke="#B8B8B8" />
    <text x="1542" y="40" text-anchor="middle" font-family="Arial, sans-serif" font-size="16" font-weight="700" fill="#212121">SAMSUNG</text>
    <text x="1542" y="57" text-anchor="middle" font-family="Arial, sans-serif" font-size="16" font-weight="700" fill="#212121">Pay</text>
  </g>
</svg>
